<?xml version="1.0" encoding="utf-8"?>
<!-- Generator: Adobe Illustrator 25.2.3, SVG Export Plug-In . SVG Version: 6.00 Build 0)  -->
<svg version="1.1" id="Lager_1" xmlns="http://www.w3.org/2000/svg" xmlns:xlink="http://www.w3.org/1999/xlink" x="0px" y="0px"
	 viewBox="0 0 800 689" style="enable-background:new 0 0 800 689;" xml:space="preserve">
<style type="text/css">
	.st0{fill:#999999;}
	.st1{fill:none;stroke:#404040;stroke-width:4;stroke-linecap:round;stroke-linejoin:round;stroke-miterlimit:10;}
	.st2{fill:#FFFFFF;stroke:#404040;stroke-width:4;stroke-linecap:round;stroke-linejoin:round;stroke-miterlimit:10;}
	.st3{fill:#59AFE1;stroke:#404040;stroke-width:4;stroke-linejoin:round;stroke-miterlimit:10;}
	.st4{fill:none;stroke:#CCCCCC;stroke-linecap:round;stroke-linejoin:round;stroke-miterlimit:10;}
	.st5{fill:#B3E3FF;stroke:#404040;stroke-width:4;stroke-linecap:round;stroke-linejoin:round;stroke-miterlimit:10;}
	.st6{fill:#414141;}
</style>
<path class="st0" d="M338.4,460.9v-10.6h3.7c2.7,0,5.1,1.8,5.1,5.3s-2.4,5.3-5.1,5.3L338.4,460.9L338.4,460.9z M342,459.6
	c2,0,3.6-1.3,3.6-4s-1.6-4-3.6-4h-2.2v8H342z M356,458.9c-0.4,1.3-1.6,2.3-3.2,2.3c-1.9,0-3.6-1.4-3.6-3.9c0-2.3,1.6-3.8,3.4-3.8
	c2.2,0,3.5,1.5,3.5,3.8v0.4h-5.4c0,1.3,1,2.2,2.2,2.2s1.8-0.6,2-1.5L356,458.9z M354.6,456.6c0-1-0.7-1.8-2-1.8
	c-1.2,0-1.9,0.9-2,1.8H354.6z M360.5,453.7h1.6v1.3h-1.6v3.8c0,0.7,0.3,1,1,1c0.2,0,0.4,0,0.6-0.1v1.2c-0.1,0-0.5,0.1-1,0.1
	c-1.2,0-2-0.8-2-2.1v-4h-1.4v-1.3h0.4c0.8,0,1.1-0.5,1.1-1.1v-1.2h1.3V453.7L360.5,453.7z M366.5,456.8l1.9-0.3
	c0.4-0.1,0.6-0.3,0.6-0.5c0-0.7-0.5-1.3-1.6-1.3c-1,0-1.5,0.6-1.6,1.5l-1.4-0.3c0.2-1.4,1.4-2.3,3-2.3c2.2,0,3,1.2,3,2.6v3.6
	c0,0.6,0.1,1,0.1,1.2h-1.4c0-0.2-0.1-0.5-0.1-1c-0.3,0.5-1,1.2-2.3,1.2c-1.5,0-2.4-1-2.4-2.2C364.3,457.7,365.2,457,366.5,456.8
	L366.5,456.8z M369,457.8v-0.3l-2.2,0.3c-0.6,0.1-1.1,0.4-1.1,1.1c0,0.5,0.4,1,1.2,1C368,460,369,459.4,369,457.8z M375.2,453.7h1.6
	v1.3h-1.6v3.8c0,0.7,0.3,1,1,1c0.2,0,0.4,0,0.6-0.1v1.2c-0.1,0-0.5,0.1-1,0.1c-1.2,0-2-0.8-2-2.1v-4h-1.4v-1.3h0.4
	c0.8,0,1.1-0.5,1.1-1.1v-1.2h1.3V453.7L375.2,453.7z M380.2,457.3c0,1.6,1,2.5,2.2,2.5c1.3,0,1.8-0.9,2-1.5l1.2,0.5
	c-0.3,1-1.4,2.2-3.3,2.2c-2.1,0-3.6-1.6-3.6-3.8c0-2.2,1.6-3.8,3.6-3.8c1.9,0,2.9,1.2,3.2,2.3l-1.3,0.5c-0.2-0.7-0.7-1.5-1.9-1.5
	C381.2,454.8,380.2,455.6,380.2,457.3L380.2,457.3z M389.4,460.9H388V450h1.4v4.5c0.5-0.8,1.4-1.1,2.2-1.1c1.7,0,2.6,1.2,2.6,2.9
	v4.6h-1.4v-4.3c0-1-0.4-1.8-1.7-1.8c-1.1,0-1.6,0.8-1.7,1.9V460.9L389.4,460.9z M403.5,458.9c-0.4,1.3-1.6,2.3-3.2,2.3
	c-1.9,0-3.6-1.4-3.6-3.9c0-2.3,1.6-3.8,3.4-3.8c2.2,0,3.5,1.5,3.5,3.8v0.4h-5.4c0,1.3,1,2.2,2.2,2.2s1.8-0.6,2-1.5L403.5,458.9z
	 M402.1,456.6c0-1-0.7-1.8-2-1.8c-1.2,0-1.9,0.9-2,1.8H402.1z M411.1,459.8c-0.3,0.7-1.1,1.3-2.2,1.3c-2.1,0-3.4-1.7-3.4-3.8
	c0-2,1.4-3.8,3.4-3.8c1.3,0,2,0.6,2.2,1.2V450h1.4v9.5c0,0.7,0.1,1.2,0.1,1.3h-1.4C411.2,460.6,411.1,460.3,411.1,459.8z M409,459.9
	c1.3,0,2.1-1.1,2.1-2.6s-0.8-2.5-2.1-2.5s-2.1,1-2.1,2.5S407.7,459.9,409,459.9z M427.2,460.9v-4.7h-5.4v4.7h-1.5v-10.6h1.5v4.5h5.4
	v-4.5h1.5v10.6H427.2z M432.1,460.9v-10.6h6.5v1.4h-5v3.3h4.5v1.4h-4.5v3.3h5v1.4h-6.5V460.9z M447.8,458h-4.7l-1.1,3h-1.6l4.2-10.6
	h1.7l4.2,10.6h-1.6L447.8,458z M443.6,456.6h3.7l-1.8-4.8L443.6,456.6L443.6,456.6z M452.8,460.9v-10.6h3.7c2.7,0,5.1,1.8,5.1,5.3
	s-2.4,5.3-5.1,5.3L452.8,460.9L452.8,460.9z M456.4,459.6c2,0,3.6-1.3,3.6-4s-1.6-4-3.6-4h-2.2v8H456.4z"/>
<path class="st1" d="M551.4,619v-23.5 M562.2,610.3l-10.9,10.8l-10.8-10.8"/>
<path class="st2" d="M242.6,662.1h287.8"/>
<circle class="st2" cx="221.6" cy="662.1" r="21"/>
<circle class="st3" cx="331.5" cy="662.1" r="21"/>
<circle class="st2" cx="441.4" cy="662.1" r="21"/>
<circle class="st2" cx="551.4" cy="662.1" r="21"/>
<path class="st0" d="M349.3,11.9h-4.7l-1.1,3h-1.6l4.2-10.6h1.7l4.2,10.6h-1.6L349.3,11.9z M345.2,10.5h3.7L347,5.8L345.2,10.5
	L345.2,10.5z M355.7,7.7h1.6V9h-1.6v3.8c0,0.7,0.3,1,1,1c0.2,0,0.4,0,0.6-0.1v1.2c-0.1,0-0.5,0.1-1,0.1c-1.2,0-2-0.8-2-2.1v-4h-1.4
	V7.7h0.4c0.8,0,1.1-0.5,1.1-1.1V5.4h1.3V7.7z M361.8,7.7h1.6V9h-1.6v3.8c0,0.7,0.3,1,1,1c0.2,0,0.4,0,0.6-0.1v1.2
	c-0.1,0-0.5,0.1-1,0.1c-1.2,0-2-0.8-2-2.1v-4H359V7.7h0.4c0.8,0,1.1-0.5,1.1-1.1V5.4h1.3V7.7z M367.7,10.8l1.9-0.3
	c0.4-0.1,0.6-0.3,0.6-0.5c0-0.7-0.5-1.3-1.6-1.3c-1,0-1.5,0.6-1.6,1.5l-1.4-0.3c0.2-1.4,1.4-2.3,3-2.3c2.2,0,3,1.2,3,2.6v3.6
	c0,0.6,0.1,1,0.1,1.2h-1.4c0-0.2-0.1-0.5-0.1-1c-0.3,0.5-1,1.2-2.3,1.2c-1.5,0-2.4-1-2.4-2.2C365.5,11.7,366.5,10.9,367.7,10.8
	L367.7,10.8z M370.2,11.8v-0.3l-2.2,0.3c-0.6,0.1-1,0.4-1,1.1c0,0.5,0.4,1,1.2,1C369.3,13.9,370.2,13.4,370.2,11.8z M375.4,11.3
	c0,1.6,1,2.5,2.2,2.5c1.3,0,1.8-0.9,2-1.5l1.2,0.5c-0.3,1-1.4,2.2-3.3,2.2c-2.1,0-3.6-1.6-3.6-3.8s1.6-3.8,3.6-3.8
	c1.9,0,2.9,1.2,3.2,2.3l-1.3,0.5c-0.2-0.7-0.7-1.5-1.9-1.5C376.4,8.7,375.4,9.6,375.4,11.3L375.4,11.3z M384.7,14.9h-1.4V4h1.4v4.5
	c0.5-0.8,1.4-1.1,2.2-1.1c1.7,0,2.6,1.2,2.6,2.9v4.6H388v-4.3c0-1-0.4-1.8-1.7-1.8c-1.1,0-1.6,0.8-1.7,1.9v4.2L384.7,14.9z
	 M398.7,12.8c-0.4,1.3-1.6,2.3-3.2,2.3c-1.9,0-3.6-1.4-3.6-3.9c0-2.3,1.6-3.8,3.4-3.8c2.2,0,3.5,1.5,3.5,3.8v0.4h-5.4
	c0,1.3,1,2.2,2.2,2.2s1.8-0.6,2-1.5C397.6,12.3,398.7,12.8,398.7,12.8z M397.3,10.5c0-1-0.7-1.8-2-1.8c-1.2,0-1.9,0.9-2,1.8H397.3z
	 M406.4,13.8c-0.3,0.7-1.1,1.3-2.2,1.3c-2.1,0-3.4-1.7-3.4-3.8c0-2,1.4-3.8,3.4-3.8c1.3,0,2,0.6,2.2,1.2V4h1.4v9.5
	c0,0.7,0.1,1.2,0.1,1.3h-1.4C406.5,14.6,406.4,14.3,406.4,13.8z M404.3,13.8c1.3,0,2.1-1.1,2.1-2.6s-0.8-2.5-2.1-2.5s-2.1,1-2.1,2.5
	S402.9,13.8,404.3,13.8z M422.4,14.9v-4.7H417v4.7h-1.5V4.2h1.5v4.5h5.4V4.2h1.5v10.6L422.4,14.9L422.4,14.9z M427.4,14.9V4.2h6.5
	v1.4h-5v3.3h4.5v1.4h-4.5v3.3h5V15L427.4,14.9L427.4,14.9z M443,11.9h-4.7l-1.1,3h-1.6l4.2-10.6h1.7l4.2,10.6h-1.6L443,11.9z
	 M438.8,10.5h3.7l-1.8-4.8L438.8,10.5L438.8,10.5z M448,14.9V4.2h3.7c2.7,0,5.1,1.8,5.1,5.3s-2.4,5.3-5.1,5.3L448,14.9L448,14.9z
	 M451.7,13.6c2,0,3.6-1.3,3.6-4s-1.6-4-3.6-4h-2.2v8H451.7z"/>
<path class="st1" d="M551.4,181.1v-23.5 M562.2,172.4l-10.9,10.9l-10.8-10.9"/>
<path class="st2" d="M242.6,224.3h287.8"/>
<circle class="st2" cx="221.6" cy="224.3" r="21"/>
<circle class="st2" cx="331.5" cy="224.3" r="21"/>
<circle class="st2" cx="441.4" cy="224.3" r="21"/>
<circle class="st3" cx="551.4" cy="224.3" r="21"/>
<path class="st4" d="M129.3,347.3h541.4"/>
<g>
	<path class="st5" d="M503.1,86.7h96.2v50h-96.2V86.7z"/>
	<g>
		<path class="st6" d="M536,117.8v-10h2l2.4,7.1c0.2,0.7,0.4,1.2,0.5,1.5c0.1-0.4,0.3-0.9,0.5-1.6l2.4-7h1.8v10h-1.3v-8.4l-2.9,8.4
			h-1.2l-2.9-8.5v8.5H536z"/>
		<path class="st6" d="M553,116.9c-0.5,0.4-0.9,0.7-1.3,0.8c-0.4,0.2-0.9,0.2-1.4,0.2c-0.8,0-1.4-0.2-1.8-0.6
			c-0.4-0.4-0.6-0.9-0.6-1.5c0-0.4,0.1-0.7,0.2-1c0.2-0.3,0.4-0.5,0.6-0.7c0.3-0.2,0.6-0.3,0.9-0.4c0.2-0.1,0.6-0.1,1.1-0.2
			c1-0.1,1.7-0.3,2.2-0.4c0-0.2,0-0.3,0-0.3c0-0.5-0.1-0.9-0.3-1.1c-0.3-0.3-0.8-0.4-1.4-0.4c-0.6,0-1,0.1-1.3,0.3
			c-0.3,0.2-0.5,0.6-0.6,1.1l-1.2-0.2c0.1-0.5,0.3-0.9,0.5-1.2c0.3-0.3,0.6-0.6,1.1-0.7c0.5-0.2,1-0.3,1.6-0.3s1.1,0.1,1.5,0.2
			s0.7,0.3,0.9,0.6c0.2,0.2,0.3,0.5,0.4,0.8c0,0.2,0.1,0.6,0.1,1.1v1.6c0,1.1,0,1.9,0.1,2.2s0.2,0.6,0.3,0.9h-1.3
			C553.1,117.6,553,117.3,553,116.9z M552.9,114.2c-0.4,0.2-1.1,0.3-2,0.5c-0.5,0.1-0.9,0.2-1.1,0.2c-0.2,0-0.4,0.2-0.5,0.4
			c-0.1,0.2-0.2,0.4-0.2,0.6c0,0.3,0.1,0.6,0.4,0.8c0.2,0.2,0.6,0.3,1.1,0.3s0.9-0.1,1.3-0.3c0.4-0.2,0.6-0.5,0.8-0.9
			c0.1-0.3,0.2-0.7,0.2-1.2V114.2L552.9,114.2z"/>
		<path class="st6" d="M556.7,109.2v-1.4h1.2v1.4H556.7z M556.7,117.8v-7.3h1.2v7.3H556.7z"/>
		<path class="st6" d="M560.5,117.8v-7.3h1.1v1c0.5-0.8,1.3-1.2,2.3-1.2c0.4,0,0.8,0.1,1.2,0.2c0.4,0.2,0.6,0.4,0.8,0.6
			s0.3,0.6,0.4,0.9c0,0.2,0.1,0.6,0.1,1.2v4.5h-1.2v-4.4c0-0.5,0-0.9-0.1-1.1s-0.3-0.4-0.5-0.6c-0.2-0.1-0.5-0.2-0.9-0.2
			c-0.5,0-1,0.2-1.4,0.5s-0.6,1-0.6,1.9v4H560.5L560.5,117.8z"/>
	</g>
</g>
<g>
	<path class="st5" d="M503.1,524.6h96.2v50h-96.2V524.6z"/>
	<g>
		<path class="st6" d="M536,555.7v-10h2l2.4,7.1c0.2,0.7,0.4,1.2,0.5,1.5c0.1-0.4,0.3-0.9,0.5-1.6l2.4-7h1.8v10h-1.3v-8.4l-2.9,8.4
			h-1.2l-2.9-8.5v8.5H536z"/>
		<path class="st6" d="M553,554.8c-0.5,0.4-0.9,0.7-1.3,0.8c-0.4,0.2-0.9,0.2-1.4,0.2c-0.8,0-1.4-0.2-1.8-0.6
			c-0.4-0.4-0.6-0.9-0.6-1.5c0-0.4,0.1-0.7,0.2-1c0.2-0.3,0.4-0.5,0.6-0.7c0.3-0.2,0.6-0.3,0.9-0.4c0.2-0.1,0.6-0.1,1.1-0.2
			c1-0.1,1.7-0.3,2.2-0.4c0-0.2,0-0.3,0-0.3c0-0.5-0.1-0.9-0.3-1.1c-0.3-0.3-0.8-0.4-1.4-0.4c-0.6,0-1,0.1-1.3,0.3s-0.5,0.6-0.6,1.1
			l-1.2-0.2c0.1-0.5,0.3-0.9,0.5-1.2c0.3-0.3,0.6-0.6,1.1-0.7c0.5-0.2,1-0.3,1.6-0.3s1.1,0.1,1.5,0.2c0.4,0.1,0.7,0.3,0.9,0.6
			c0.2,0.2,0.3,0.5,0.4,0.8c0,0.2,0.1,0.6,0.1,1.1v1.6c0,1.1,0,1.9,0.1,2.2s0.2,0.6,0.3,0.9h-1.3C553.1,555.5,553,555.2,553,554.8z
			 M552.9,552.1c-0.4,0.2-1.1,0.3-2,0.5c-0.5,0.1-0.9,0.2-1.1,0.2c-0.2,0-0.4,0.2-0.5,0.4c-0.1,0.2-0.2,0.4-0.2,0.6
			c0,0.3,0.1,0.6,0.4,0.8c0.2,0.2,0.6,0.3,1.1,0.3s0.9-0.1,1.3-0.3c0.4-0.2,0.6-0.5,0.8-0.9c0.1-0.3,0.2-0.7,0.2-1.2V552.1
			L552.9,552.1z"/>
		<path class="st6" d="M556.7,547.1v-1.4h1.2v1.4H556.7z M556.7,555.7v-7.3h1.2v7.3H556.7z"/>
		<path class="st6" d="M560.5,555.7v-7.3h1.1v1c0.5-0.8,1.3-1.2,2.3-1.2c0.4,0,0.8,0.1,1.2,0.2c0.4,0.2,0.6,0.4,0.8,0.6
			c0.2,0.2,0.3,0.6,0.4,0.9c0,0.2,0.1,0.6,0.1,1.2v4.5h-1.2v-4.4c0-0.5,0-0.9-0.1-1.1s-0.3-0.4-0.5-0.6c-0.2-0.1-0.5-0.2-0.9-0.2
			c-0.5,0-1,0.2-1.4,0.5c-0.4,0.3-0.6,1-0.6,1.9v4H560.5L560.5,555.7z"/>
	</g>
</g>
</svg>
